<?xml version="1.0" standalone="no"?>
<!DOCTYPE svg PUBLIC "-//W3C//DTD SVG 20010904//EN"
 "http://www.w3.org/TR/2001/REC-SVG-20010904/DTD/svg10.dtd">
<svg version="1.0" xmlns="http://www.w3.org/2000/svg"
 width="262.000000pt" height="85.000000pt" viewBox="0 0 262.000000 85.000000"
 preserveAspectRatio="xMidYMid meet">

<g transform="translate(0.000000,85.000000) scale(0.100000,-0.100000)"
fill="#000000" stroke="none">
<path d="M755 594 c-90 -47 -119 -137 -74 -230 64 -134 269 -111 309 35 29
109 -49 211 -162 211 -24 0 -56 -7 -73 -16z m148 -74 c22 -25 27 -40 27 -81 0
-43 -5 -55 -29 -80 -60 -59 -162 -25 -176 60 -19 114 102 183 178 101z"/>
<path d="M1124 590 c-60 -30 -88 -85 -82 -161 7 -97 64 -151 162 -153 90 -1
165 69 166 157 l0 27 -90 0 c-89 0 -90 0 -90 -25 0 -24 3 -25 55 -25 64 0 72
-15 29 -55 -41 -38 -97 -34 -140 9 -26 26 -34 42 -34 70 0 44 22 91 49 106 34
17 96 12 116 -10 21 -23 85 -28 85 -7 0 18 -49 64 -83 76 -43 17 -98 13 -143
-9z"/>
<path d="M1420 445 l0 -165 30 0 30 0 0 70 0 70 55 0 c52 0 55 1 55 25 0 24
-3 25 -55 25 l-55 0 0 45 0 45 70 0 c68 0 70 1 70 25 l0 25 -100 0 -100 0 0
-165z"/>
<path d="M1680 445 l0 -165 30 0 30 0 0 165 0 165 -30 0 -30 0 0 -165z"/>
<path d="M1810 446 l0 -166 30 0 30 0 0 101 c0 55 4 98 8 95 5 -3 26 -48 47
-100 35 -86 41 -96 64 -96 23 0 30 10 65 95 21 52 42 95 47 95 5 0 9 -43 9
-95 l0 -95 30 0 30 0 0 166 0 165 -37 -3 -36 -3 -50 -118 c-28 -65 -55 -116
-60 -114 -5 1 -31 54 -57 117 -48 115 -48 115 -84 118 l-36 3 0 -165z"/>
<path d="M2281 597 c-28 -16 -50 -53 -51 -83 0 -36 37 -71 93 -89 63 -20 91
-48 77 -76 -6 -10 -22 -22 -37 -25 -21 -6 -31 -2 -49 19 -16 19 -33 27 -54 27
-28 0 -31 -3 -24 -22 24 -82 158 -102 213 -31 46 58 18 114 -74 147 -65 24
-86 46 -69 74 16 25 57 27 79 2 24 -26 75 -28 75 -2 0 10 -11 29 -25 42 -31
29 -117 38 -154 17z"/>
</g>
</svg>
